<?xml version="1.0" encoding="UTF-8" standalone="no" ?>
<!DOCTYPE svg PUBLIC "-//W3C//DTD SVG 1.1//EN" "http://www.w3.org/Graphics/SVG/1.1/DTD/svg11.dtd">
<svg xmlns="http://www.w3.org/2000/svg" xmlns:xlink="http://www.w3.org/1999/xlink" version="1.1" width="1080" height="1080" viewBox="0 0 1080 1080" xml:space="preserve">
<desc>Created with Fabric.js 4.2.0</desc>
<defs>
</defs>
<g transform="matrix(1 0 0 1 540 540)" id="ca770902-cc97-43ee-b6e2-153f3f753c73"  >
<rect style="stroke: none; stroke-width: 1; stroke-dasharray: none; stroke-linecap: butt; stroke-dashoffset: 0; stroke-linejoin: miter; stroke-miterlimit: 4; fill: rgb(255,255,255); fill-opacity: 0; fill-rule: nonzero; opacity: 1;" vector-effect="non-scaling-stroke"  x="-540" y="-540" rx="0" ry="0" width="1080" height="1080" />
</g>
<g transform="matrix(Infinity NaN NaN Infinity 0 0)" id="42a7832e-a950-4dda-8b1d-bc3a57f8a819"  >
</g>
<g transform="matrix(19.56 0 0 19.56 496.99 537.04)"  >
<g style="" vector-effect="non-scaling-stroke"   >
		<g transform="matrix(-1 0 0 1 -4.23 23.12)" id="Oval"  >
<ellipse style="stroke: none; stroke-width: 1; stroke-dasharray: none; stroke-linecap: butt; stroke-dashoffset: 0; stroke-linejoin: miter; stroke-miterlimit: 4; fill: rgb(60,38,107); fill-rule: nonzero; opacity: 0.2;" vector-effect="non-scaling-stroke"  cx="0" cy="0" rx="25.6971932" ry="3.77836739" />
</g>
		<g transform="matrix(-1 0 0 1 1.91 -2.66)" id="Path"  >
<path style="stroke: rgb(74,51,143); stroke-width: 3; stroke-dasharray: none; stroke-linecap: butt; stroke-dashoffset: 0; stroke-linejoin: miter; stroke-miterlimit: 4; fill: rgb(255,255,255); fill-rule: nonzero; opacity: 1;" vector-effect="non-scaling-stroke"  transform=" translate(-27.54, -23.37)" d="M 18.0876903 46.50165 C 18.2317006 46.5074273 18.3814713 46.5132046 18.5254816 46.5132046 C 19.3319391 46.5132046 20.1383966 46.4323222 20.9506146 46.2763345 L 40.0809393 42.5384084 C 49.0038158 40.7936577 54.8448725 32.0872362 53.1052284 23.1381673 L 49.4070446 4.13656124 C 48.8828472 1.45010736 46.2791414 -0.306197969 43.6063108 0.219538166 L 5.65672354 7.64339458 C 2.97813245 8.16913071 1.22696753 10.7747021 1.75116492 13.4669333 C 1.75116492 13.4669333 4.59104751 27.9391203 5.59335902 32.751628 C 7.65558613 42.6828414 9.24545955 47.4029119 18.0876903 46.50165 Z" stroke-linecap="round" />
</g>
		<g transform="matrix(-1 0 0 1 -10.78 -11.66)" id="Path"  >
<path style="stroke: rgb(246,210,12); stroke-width: 3; stroke-dasharray: none; stroke-linecap: round; stroke-dashoffset: 0; stroke-linejoin: round; stroke-miterlimit: 4; fill: none; fill-rule: evenodd; opacity: 1;" vector-effect="non-scaling-stroke"  transform=" translate(-40.22, -14.37)" d="M 40.6742616 8.38866888 L 40.6742616 8.38866888 C 37.4369107 8.14602143 34.6143093 10.6244918 34.3666116 13.9291189 L 34.3666116 13.9291189 C 34.118914 17.233746 36.544047 20.1108515 39.7756375 20.3534989 L 39.7756375 20.3534989 C 43.0129884 20.5961464 45.8355898 18.117676 46.0832875 14.8130489 L 46.0832875 14.8130489 C 46.3309851 11.5084218 43.9058521 8.63131632 40.6742616 8.38866888 Z" stroke-linecap="round" />
</g>
		<g transform="matrix(-1 0 0 1 -5.89 4.86)" id="Path"  >
<path style="stroke: rgb(246,210,12); stroke-width: 3; stroke-dasharray: none; stroke-linecap: round; stroke-dashoffset: 0; stroke-linejoin: round; stroke-miterlimit: 4; fill: none; fill-rule: evenodd; opacity: 1;" vector-effect="non-scaling-stroke"  transform=" translate(-35.34, -30.88)" d="M 43.0993946 27.1245182 C 43.5717483 30.6486835 40.4726472 33.9764199 36.1753807 34.5541519 C 31.8781141 35.1318839 28.007118 32.7458507 27.5347643 29.2216854" stroke-linecap="round" />
</g>
		<g transform="matrix(-1 0 0 1 5.12 -8.19)" id="Path"  >
<path style="stroke: rgb(246,210,12); stroke-width: 3; stroke-dasharray: none; stroke-linecap: round; stroke-dashoffset: 0; stroke-linejoin: round; stroke-miterlimit: 4; fill: none; fill-rule: evenodd; opacity: 1;" vector-effect="non-scaling-stroke"  transform=" translate(-24.33, -17.83)" d="M 19.4241057 14.3970818 C 19.4241057 14.3970818 26.6361402 13.9695602 29.2283251 16.7946697 C 29.2283251 16.7946697 23.2720602 18.1581173 20.9736562 21.2952021" stroke-linecap="round" />
</g>
		<g transform="matrix(-1 0 0 1 19.58 11.75)"  >
<path style="stroke: rgb(253,221,0); stroke-width: 1.9784; stroke-dasharray: none; stroke-linecap: butt; stroke-dashoffset: 0; stroke-linejoin: miter; stroke-miterlimit: 4; fill: rgb(253,221,0); fill-rule: nonzero; opacity: 1;" vector-effect="non-scaling-stroke"  transform=" translate(-9.87, -14.66)" d="M 10.0980004 0.571954696 C 12.2293524 1.35767024 12.9839662 2.95798792 12.8629976 5.13026031 C 12.8111539 6.08929545 12.8514768 7.05410792 12.8514768 8.13446679 C 13.5196845 8.13446679 14.101486 8.13446679 14.6832875 8.13446679 C 18.0704091 8.13446679 19.5450743 10.4569495 18.0704091 13.4784879 C 20.340011 15.2001294 20.2939277 17.9328018 17.9263988 19.4406824 C 18.8135021 22.0520311 18.5946065 22.9995116 16.7800771 24.4091777 C 16.878004 24.9580231 17.045056 25.4953139 17.0508164 26.038382 C 17.0623372 27.5058213 15.9448175 28.6901719 14.4816731 28.7132812 C 11.9586131 28.7537225 9.4297927 28.8057183 6.90673271 28.6901719 C 4.08989176 28.5630709 0.293780958 26.2983614 0.0691249312 21.3067568 C -0.0288020547 19.1575937 -0.0172812328 16.9853213 0.172812328 14.8477128 C 0.443551642 11.8030651 2.17167492 9.72322984 5.00003669 8.64287096 C 5.67400477 8.38289156 5.82953586 8.06513895 5.80073381 7.43541105 C 5.76041093 6.65547283 5.85257751 5.86397997 5.77769217 5.08981906 C 5.56455696 2.92910132 6.39981655 1.41544344 8.40443955 0.566177376 C 8.97472023 0.571954696 9.53924051 0.571954696 10.0980004 0.571954696 Z" stroke-linecap="round" />
</g>
		<g transform="matrix(-1 0 0 1 19.56 15.52)"  >
<path style="stroke: none; stroke-width: 1; stroke-dasharray: none; stroke-linecap: butt; stroke-dashoffset: 0; stroke-linejoin: miter; stroke-miterlimit: 4; fill: rgb(255,255,255); fill-rule: nonzero; opacity: 1;" vector-effect="non-scaling-stroke"  transform=" translate(-9.89, -18.44)" d="M 10.6452394 27.0898542 C 10.6452394 27.1187408 10.6452394 27.1534048 10.6452394 27.1822914 C 11.7685195 27.1822914 12.8917997 27.193846 14.0150798 27.1822914 C 15.0001101 27.1707367 15.5703908 26.6969965 15.5415887 25.9343902 C 15.5127866 25.1891159 15.0001101 24.7847035 14.032361 24.7789262 C 12.5980187 24.7673715 11.1636764 24.7789262 9.72933407 24.7731489 C 9.19361585 24.7731489 8.72126215 24.5362787 8.84223078 23.9701014 C 8.9055953 23.675458 9.38946982 23.4328106 9.72933407 23.259491 C 9.93094845 23.1612765 10.218969 23.242159 10.4666667 23.242159 C 11.929811 23.242159 13.3987158 23.2652683 14.8618602 23.2306044 C 16.0427445 23.2074951 16.7455146 22.6759816 16.8722436 21.8036063 C 17.0508164 20.5903691 16.2904421 19.741103 14.9540268 19.723771 C 13.2374243 19.7006618 11.5265823 19.7122164 9.80997982 19.723771 C 9.28578243 19.7295484 8.83647037 19.614002 8.81342873 19.0073833 C 8.78462667 18.3372142 9.26274078 18.2158905 9.82726105 18.2216678 C 11.8203632 18.2332224 13.8192258 18.2332224 15.812328 18.2158905 C 16.2097964 18.2101132 16.6303064 18.1812266 17.0047331 18.0599028 C 17.816951 17.7999234 18.208659 17.1875275 18.1510549 16.3440387 C 18.0992112 15.5409912 17.6729407 14.9979231 16.878004 14.8130489 C 16.5150981 14.7321664 16.1406714 14.7032798 15.7662447 14.7032798 C 13.8653091 14.6917252 11.9643735 14.6975025 10.0576775 14.6975025 C 9.49315722 14.6975025 8.81918914 14.7494984 8.80766832 13.9464509 C 8.7961475 13.1491807 9.44131352 13.1607353 10.023115 13.1607353 C 11.7685195 13.1665127 13.5139241 13.17229 15.2593286 13.154958 C 16.3538066 13.1434034 17.1141809 12.432793 17.1372225 11.4737578 C 17.1602642 10.4973907 16.428692 9.73478448 15.3342139 9.72322984 C 12.6210604 9.70012055 9.90790681 9.66545663 7.19475326 9.75211644 C 4.08413135 9.85033088 1.65323794 12.4559023 1.63595671 15.5641005 C 1.62443588 17.4706162 1.63019629 19.3771318 1.63595671 21.2894248 C 1.64747753 24.2011942 3.72698587 26.6854418 6.61295175 27.0551903 C 7.9551275 27.2285099 9.30882407 27.0898542 10.6452394 27.0898542 Z" stroke-linecap="round" />
</g>
		<g transform="matrix(-1 0 0 1 20.18 2.19)"  >
<path style="stroke: none; stroke-width: 1; stroke-dasharray: none; stroke-linecap: butt; stroke-dashoffset: 0; stroke-linejoin: miter; stroke-miterlimit: 4; fill: rgb(255,255,255); fill-rule: nonzero; opacity: 1;" vector-effect="non-scaling-stroke"  transform=" translate(-9.27, -5.11)" d="M 11.2385617 8.08824823 C 11.2385617 6.79990583 11.2443221 5.50578612 11.2385617 4.20588908 C 11.2328013 3.03309309 10.4839479 2.18960434 9.41827188 2.12605382 C 8.3756375 2.0625033 7.44821134 2.74422708 7.36180517 3.86502719 C 7.25235737 5.25158403 7.33876353 6.64969551 7.33876353 8.08824823 C 8.62333517 8.08824823 9.85606311 8.08824823 11.2385617 8.08824823 Z" stroke-linecap="round" />
</g>
</g>
</g>
</svg>