<?xml version="1.0" encoding="UTF-8" standalone="no" ?>
<!DOCTYPE svg PUBLIC "-//W3C//DTD SVG 1.1//EN" "http://www.w3.org/Graphics/SVG/1.1/DTD/svg11.dtd">
<svg xmlns="http://www.w3.org/2000/svg" xmlns:xlink="http://www.w3.org/1999/xlink" version="1.1" width="54" height="54" viewBox="0 0 54 54" xml:space="preserve">
<desc>Created with Fabric.js 4.2.0</desc>
<defs>
</defs>
<g transform="matrix(1 0 0 1 27 27)" id="52a365c2-3a64-477e-b740-07680a5ed8cc"  >
<rect style="stroke: none; stroke-width: 1; stroke-dasharray: none; stroke-linecap: butt; stroke-dashoffset: 0; stroke-linejoin: miter; stroke-miterlimit: 4; fill: rgb(255,255,255); fill-opacity: 0; fill-rule: nonzero; opacity: 1;" vector-effect="non-scaling-stroke"  x="-27" y="-27" rx="0" ry="0" width="54" height="54" />
</g>
<g transform="matrix(Infinity NaN NaN Infinity 0 0)" id="b21419d8-8229-443e-91ce-a907b6d00e17"  >
</g>
<g transform="matrix(0.99 0 0 0.99 27 27)"  >
<g style="" vector-effect="non-scaling-stroke"   >
		<g transform="matrix(1 0 0 1 0 0)"  >
<path style="stroke: none; stroke-width: 1; stroke-dasharray: none; stroke-linecap: butt; stroke-dashoffset: 0; stroke-linejoin: miter; stroke-miterlimit: 4; fill: rgb(72,53,140); fill-rule: nonzero; opacity: 1;" vector-effect="non-scaling-stroke"  transform=" translate(-27, -27)" d="M 42.481 53.788 L 11.52 53.788 C 5.27 53.788 0.212 48.725 0.212 42.481 L 0.212 11.52 C 0.212 5.275 5.275 0.212 11.519 0.212 L 42.48 0.212 C 48.727999999999994 0.212 53.787 5.2749999999999995 53.787 11.519 L 53.787 42.48 C 53.787 48.724 48.724 53.787 42.48 53.787 z" stroke-linecap="round" />
</g>
		<g transform="matrix(1 0 0 1 6.66 -11.48)"  >
<path style="stroke: none; stroke-width: 1; stroke-dasharray: none; stroke-linecap: butt; stroke-dashoffset: 0; stroke-linejoin: miter; stroke-miterlimit: 4; fill: rgb(247,211,11); fill-rule: nonzero; opacity: 1;" vector-effect="non-scaling-stroke"  transform=" translate(-33.66, -15.52)" d="M 36.732 26.369 C 36.141999999999996 26.369 35.549 26.277 34.967 26.086 L 27.058 23.519 C 23.187 22.259999999999998 21.06 18.086 22.317999999999998 14.213999999999999 L 24.865 6.379999999999999 C 25.067999999999998 5.756999999999999 25.5 5.249999999999999 26.09 4.950999999999999 C 26.676 4.651999999999998 27.345 4.597999999999999 27.968 4.800999999999998 L 43.657 9.902999999999999 C 44.279999999999994 10.105999999999998 44.787 10.537999999999998 45.086 11.127999999999998 C 45.385 11.713999999999999 45.439 12.383 45.236 13.005999999999998 L 42.195 22.223 C 41.775 23.723 40.791 24.953 39.42 25.686999999999998 C 38.573 26.139999999999997 37.659 26.368999999999996 36.732 26.368999999999996 z M 26.842 6.251999999999999 C 26.759 6.251999999999999 26.692 6.275999999999999 26.651999999999997 6.296999999999999 C 26.592 6.326999999999999 26.488999999999997 6.3969999999999985 26.442999999999998 6.533999999999999 L 23.752 14.812999999999999 C 22.791999999999998 17.758 24.412 20.935 27.357 21.895 L 35.715 24.612 C 36.715 24.936 37.775000000000006 24.84 38.705000000000005 24.342 C 39.632000000000005 23.843 40.29600000000001 23.008 40.575 21.994999999999997 L 40.591 21.941 L 43.815 12.178999999999998 C 43.881 11.970999999999998 43.760999999999996 11.734999999999998 43.549 11.663999999999998 L 26.967 6.268 C 26.921 6.256 26.88 6.252 26.842 6.252 z" stroke-linecap="round" />
</g>
		<g transform="matrix(1 0 0 1 9.47 -2.12)"  >
<path style="stroke: none; stroke-width: 1; stroke-dasharray: none; stroke-linecap: butt; stroke-dashoffset: 0; stroke-linejoin: miter; stroke-miterlimit: 4; fill: rgb(255,255,255); fill-rule: nonzero; opacity: 1;" vector-effect="non-scaling-stroke"  transform=" translate(-36.47, -24.88)" d="M 31.968 12.3 C 31.91 12.3 31.852 12.3 31.789 12.295 C 29.696 12.195 28.076 10.389 28.176000000000002 8.262 C 28.226000000000003 7.236000000000001 28.662000000000003 6.285 29.409000000000002 5.5920000000000005 C 30.161 4.893000000000001 31.133000000000003 4.5360000000000005 32.151 4.586 C 34.244 4.686 35.864000000000004 6.492 35.765 8.619 C 35.669000000000004 10.684 33.983000000000004 12.295 31.968 12.299 z M 31.976 5.824000000000001 C 31.340999999999998 5.824000000000001 30.733999999999998 6.0600000000000005 30.256 6.5040000000000004 C 29.75 6.974 29.451 7.622000000000001 29.418 8.32 C 29.351 9.762 30.439 10.987 31.848 11.053 C 33.256 11.120000000000001 34.455999999999996 10.003 34.522999999999996 8.561 C 34.589 7.12 33.501 5.894 32.092999999999996 5.827999999999999 C 32.055 5.824 32.013 5.824 31.975999999999996 5.824 z M 40.965 13.679 C 40.907000000000004 13.679 40.849000000000004 13.679 40.787000000000006 13.674 C 38.693000000000005 13.574 37.07300000000001 11.767999999999999 37.17300000000001 9.640999999999998 C 37.223000000000006 8.614999999999998 37.659000000000006 7.663999999999998 38.406000000000006 6.970999999999998 C 39.15800000000001 6.2719999999999985 40.13 5.914999999999998 41.148 5.964999999999998 C 43.242000000000004 6.064999999999998 44.862 7.871999999999998 44.762 9.997999999999998 C 44.67 12.062999999999997 42.984 13.677999999999997 40.965 13.677999999999997 z M 40.974000000000004 7.203 C 40.338 7.203 39.732000000000006 7.44 39.254000000000005 7.884 C 38.74700000000001 8.354000000000001 38.44800000000001 9.001000000000001 38.414 9.699 C 38.348 11.141 39.437000000000005 12.366 40.844 12.432 C 42.253 12.499 43.454 11.382 43.52 9.940000000000001 C 43.586000000000006 8.499 42.498000000000005 7.2730000000000015 41.09 7.207000000000001 C 41.05200000000001 7.203000000000001 41.010000000000005 7.203000000000001 40.974000000000004 7.203000000000001 z M 41.443 28.749 C 39.099999999999994 33.667 32.446 33.393 30.413999999999998 28.761 C 30.384999999999998 28.782 30.355999999999998 28.799 30.331 28.823999999999998 C 30.281 28.874 30.24 28.927 30.194 28.980999999999998 C 29.026999999999997 30.369 28.441 31.976 28.436999999999998 33.787 C 28.429 38.303 28.432999999999996 37.659 28.432999999999996 42.174 C 28.432999999999996 42.847 28.623999999999995 43.47 29.042999999999996 44.002 C 29.641999999999996 44.762 30.422999999999995 45.152 31.427999999999997 45.169000000000004 L 31.427999999999997 44.758 C 31.427999999999997 43.399 31.423999999999996 42.045 31.432 40.687000000000005 C 31.448999999999998 38.178000000000004 33.472 36.188 35.992999999999995 36.197 C 38.44799999999999 36.205000000000005 40.40899999999999 38.199000000000005 40.416999999999994 40.699000000000005 C 40.42099999999999 42.07000000000001 40.416999999999994 43.437000000000005 40.416999999999994 44.80800000000001 L 40.416999999999994 45.181000000000004 C 40.55799999999999 45.173 40.63699999999999 45.17700000000001 40.71999999999999 45.165000000000006 C 42.34799999999999 44.953 43.41199999999999 43.73500000000001 43.41199999999999 42.062000000000005 C 43.41599999999999 39.229000000000006 43.41599999999999 41.563 43.41199999999999 38.730000000000004 C 43.407999999999994 36.836000000000006 43.440999999999995 34.938 43.35399999999999 33.048 C 43.273999999999994 31.408 42.568999999999996 29.991000000000003 41.44299999999999 28.748 z" stroke-linecap="round" />
</g>
		<g transform="matrix(1 0 0 1 8.88 9.2)"  >
<path style="stroke: none; stroke-width: 1; stroke-dasharray: none; stroke-linecap: butt; stroke-dashoffset: 0; stroke-linejoin: miter; stroke-miterlimit: 4; fill: rgb(255,255,255); fill-rule: nonzero; opacity: 1;" vector-effect="non-scaling-stroke"  transform=" translate(-35.88, -36.2)" d="M 38.897 43.682 L 38.93 43.682 C 38.93 42.839 38.938 42 38.926 41.156000000000006 C 38.922000000000004 40.76200000000001 38.922000000000004 40.355000000000004 38.834 39.97200000000001 C 38.502 38.53500000000001 37.14 37.55500000000001 35.714000000000006 37.69600000000001 C 34.14900000000001 37.84600000000001 32.95700000000001 39.08400000000001 32.93600000000001 40.658000000000015 C 32.906000000000006 42.69300000000001 32.906000000000006 44.728000000000016 32.93600000000001 46.76400000000002 C 32.95600000000001 48.35100000000002 34.211000000000006 49.60100000000002 35.78600000000001 49.676000000000016 C 37.36400000000001 49.75100000000002 38.74700000000001 48.637000000000015 38.88400000000001 47.051000000000016 C 38.976000000000006 45.933000000000014 38.897000000000006 44.80300000000002 38.897000000000006 43.68100000000002 z M 35.952 31.698 C 33.458999999999996 31.69 31.461999999999996 29.675 31.461999999999996 27.174 C 31.464999999999996 24.74 33.50899999999999 22.704 35.946999999999996 22.714 C 38.459999999999994 22.721999999999998 40.479 24.744 40.44199999999999 27.262 C 40.403999999999996 29.858 38.31099999999999 31.71 35.95199999999999 31.698 z M 43.79 26.697 C 43.635999999999996 26.294 43.192 26.115 42.793 26.247999999999998 C 42.319 26.406 41.846 26.567999999999998 41.373 26.726 C 40.977999999999994 26.858999999999998 40.778 27.340999999999998 40.922999999999995 27.723 C 41.077 28.125999999999998 41.52199999999999 28.304 41.92099999999999 28.171 C 42.39399999999999 28.014 42.867999999999995 27.851 43.340999999999994 27.694 C 43.736 27.561 43.934999999999995 27.073999999999998 43.78999999999999 26.697 z M 30.954 27.864 C 30.975 27.432000000000002 30.634 27.091 30.215 27.058 C 29.717 27.017 29.218 26.979 28.72 26.938 C 28.304 26.904 27.93 27.27 27.913999999999998 27.677999999999997 C 27.894 28.108999999999998 28.233999999999998 28.449999999999996 28.653999999999996 28.482999999999997 C 29.151999999999997 28.523999999999997 29.649999999999995 28.561999999999998 30.148999999999997 28.602999999999998 C 30.563999999999997 28.636999999999997 30.938 28.270999999999997 30.953999999999997 27.863999999999997 z" stroke-linecap="round" />
</g>
		<g transform="matrix(1 0 0 1 -2.41 -3.11)"  >
<path style="stroke: rgb(247,211,11); stroke-width: 0.954; stroke-dasharray: none; stroke-linecap: butt; stroke-dashoffset: 0; stroke-linejoin: miter; stroke-miterlimit: 4; fill: rgb(247,211,11); fill-rule: nonzero; opacity: 1;" vector-effect="non-scaling-stroke"  transform=" translate(-24.59, -23.89)" d="M 22.626 24.786 C 22.584 24.150000000000002 22.659000000000002 23.448 22.784000000000002 22.826 C 22.834000000000003 22.584 23.320000000000004 21.118000000000002 23.556 20.454 C 23.901 20.657 24.2 21.002000000000002 24.57 21.144000000000002 C 24.82 21.239 25.052 21.446 25.284 21.571 C 24.919 22.269000000000002 24.387 23.897000000000002 24.378999999999998 24.479000000000003 C 24.374999999999996 24.794000000000004 24.386999999999997 25.098000000000003 24.653 25.28 C 24.993 25.513 25.482999999999997 25.546 25.878 25.6 C 26.352 25.667 26.643 26.232000000000003 26.548000000000002 26.664 C 26.435000000000002 27.166 25.970000000000002 27.386000000000003 25.496000000000002 27.32 C 24.811000000000003 27.224 24.126 27.066 23.556 26.643 C 22.962 26.198 22.676000000000002 25.517 22.626 24.786 z" stroke-linecap="round" />
</g>
		<g transform="matrix(1 0 0 1 8.84 0.38)"  >
<path style="stroke: none; stroke-width: 1; stroke-dasharray: none; stroke-linecap: butt; stroke-dashoffset: 0; stroke-linejoin: miter; stroke-miterlimit: 4; fill: rgb(72,53,140); fill-rule: nonzero; opacity: 1;" vector-effect="non-scaling-stroke"  transform=" translate(-35.84, -27.38)" d="M 35.844 30.444 C 34.144 30.439 32.782000000000004 29.064 32.782000000000004 27.360999999999997 C 32.782000000000004 25.703999999999997 34.178000000000004 24.316999999999997 35.839000000000006 24.320999999999998 C 37.55100000000001 24.325 38.929 25.703999999999997 38.901 27.419999999999998 C 38.876000000000005 29.189999999999998 37.451 30.451999999999998 35.844 30.444 z" stroke-linecap="round" />
</g>
		<g transform="matrix(1 0 0 1 8.72 0.42)"  >
<path style="stroke: none; stroke-width: 1; stroke-dasharray: none; stroke-linecap: butt; stroke-dashoffset: 0; stroke-linejoin: miter; stroke-miterlimit: 4; fill: rgb(252,221,6); fill-rule: nonzero; opacity: 1;" vector-effect="non-scaling-stroke"  transform=" translate(-35.72, -27.42)" d="M 35.723 29.492 C 34.571999999999996 29.489 33.646 28.558 33.646 27.402 C 33.646 26.276 34.593 25.335 35.72 25.338 C 36.879999999999995 25.342000000000002 37.815 26.276 37.8 27.442 C 37.781 28.639 36.812 29.495 35.723 29.492 z" stroke-linecap="round" />
</g>
		<g transform="matrix(1 0 0 1 6.69 -11.33)"  >
<path style="stroke: none; stroke-width: 1; stroke-dasharray: none; stroke-linecap: butt; stroke-dashoffset: 0; stroke-linejoin: miter; stroke-miterlimit: 4; fill: rgb(255,255,255); fill-rule: nonzero; opacity: 1;" vector-effect="non-scaling-stroke"  transform=" translate(-33.69, -15.67)" d="M 44.928 14.734 C 45.205999999999996 14.472 44.791 14.048 44.513 14.31 C 43.171 15.56 41.373 16.233 39.549 16.196 C 39.479 15.876000000000001 39.159 15.643 38.872 15.544000000000002 L 34.286 13.894000000000002 C 33.787 13.716000000000001 33.401 13.940000000000001 33.21 14.294000000000002 C 32.736000000000004 14.426000000000002 32.284 14.604000000000003 31.852 14.813000000000002 C 29.322 15.066000000000003 26.784 14.007000000000001 25.206 11.959000000000003 C 24.744 11.365000000000004 24.378999999999998 10.688000000000002 24.121 9.982000000000003 C 23.993 9.624000000000002 23.415 9.762000000000002 23.543999999999997 10.122000000000003 C 24.590999999999998 13.018000000000004 27.203999999999997 15.091000000000005 30.273999999999997 15.411000000000003 C 30.438999999999997 15.427000000000003 30.605999999999998 15.440000000000003 30.775999999999996 15.444000000000003 C 29.836999999999996 16.1 29.047999999999995 16.956000000000003 28.461999999999996 17.974000000000004 C 26.011999999999997 17.400000000000002 23.863999999999997 15.585000000000004 22.958 13.230000000000004 C 22.9 13.080000000000004 22.770999999999997 12.972000000000005 22.601 13.010000000000003 C 22.46 13.043000000000003 22.326999999999998 13.218000000000004 22.381 13.367000000000003 C 23.365000000000002 15.922000000000002 25.596 17.862000000000002 28.225 18.522000000000002 C 28.146 19.004 28.429000000000002 19.452 28.923000000000002 19.639000000000003 C 30.219 20.121000000000002 31.507 20.624000000000002 32.807 21.089000000000002 C 33.941 21.492 35.121 21.749000000000002 36.309000000000005 21.409000000000002 C 37.289 21.126 38.062000000000005 20.574 38.614000000000004 19.859 C 39.499 20.1 40.404 20.267000000000003 41.318000000000005 20.354000000000003 C 41.85000000000001 20.404000000000003 42.419000000000004 20.441000000000003 42.913000000000004 20.192000000000004 C 43.337 19.976000000000003 43.661 19.519000000000005 43.615 19.029000000000003 C 43.578 18.651000000000003 42.984 18.634000000000004 43.021 19.016000000000002 C 43.063 19.448 42.689 19.702 42.307 19.772000000000002 C 41.842 19.855 41.331 19.768 40.866 19.71 C 40.226 19.631 39.594 19.498 38.971 19.336000000000002 C 39.394999999999996 18.588 39.611 17.708000000000002 39.599 16.790000000000003 C 41.555 16.823000000000004 43.491 16.075000000000003 44.928 14.734000000000002 z" stroke-linecap="round" />
</g>
		<g transform="matrix(1 0 0 1 -11.48 -10.34)"  >
<path style="stroke: none; stroke-width: 1; stroke-dasharray: none; stroke-linecap: butt; stroke-dashoffset: 0; stroke-linejoin: miter; stroke-miterlimit: 4; fill: rgb(252,221,6); fill-rule: nonzero; opacity: 1;" vector-effect="non-scaling-stroke"  transform=" translate(-4.31, -10.43)" d="M 3.884 0.1 L 4.6899999999999995 0.1 L 4.943 0.162 C 6.255999999999999 0.45699999999999996 7.083 1.724 7.077999999999999 2.8249999999999997 C 7.069999999999999 6.3389999999999995 7.023999999999999 9.853 7.108 13.366999999999999 C 7.111 13.508 7.14 13.62 7.244 13.728 C 8.020999999999999 14.518 8.416 15.478 8.427999999999999 16.578 C 8.444999999999999 17.762 8.004 18.775 7.152999999999999 19.61 C 5.183999999999998 21.534 1.8729999999999984 20.977 0.6309999999999985 18.522 C 0.40299999999999847 18.064999999999998 0.27799999999999847 17.578999999999997 0.18299999999999844 17.084999999999997 L 0.18299999999999844 16.157999999999998 C 0.19499999999999845 16.099999999999998 0.21199999999999844 16.041999999999998 0.22399999999999845 15.983999999999998 C 0.36599999999999844 15.153999999999998 0.7059999999999984 14.417999999999997 1.2959999999999985 13.815999999999999 C 1.4499999999999984 13.658 1.5119999999999985 13.499999999999998 1.5079999999999985 13.283999999999999 C 1.5039999999999984 9.823999999999998 1.4999999999999984 6.363999999999999 1.5079999999999985 2.898999999999999 C 1.5079999999999985 1.980999999999999 1.8979999999999984 1.241999999999999 2.6079999999999988 0.6689999999999992 C 2.981999999999999 0.35699999999999915 3.4269999999999987 0.20799999999999913 3.8839999999999986 0.0989999999999992 z M 5.732 8.299999999999999 L 5.732 5.436 C 5.732 4.547 5.7410000000000005 3.6630000000000003 5.724 2.774 C 5.712000000000001 2.059 5.064 1.391 4.216 1.449 C 3.3440000000000003 1.5070000000000001 2.862 2.238 2.87 2.965 C 2.891 5.49 2.879 8.015 2.879 10.545 L 2.879 13.732 C 2.879 14.046999999999999 2.775 14.296999999999999 2.529 14.504 C 1.7399999999999998 15.177 1.4369999999999998 16.044999999999998 1.583 17.063 C 1.773 18.421 3.066 19.526 4.59 19.372999999999998 C 5.662 19.259999999999998 6.6 18.516999999999996 6.936999999999999 17.465999999999998 C 7.268999999999999 16.426999999999996 6.954 15.235999999999997 6.135 14.549999999999997 C 5.849 14.308999999999997 5.728 14.029999999999998 5.731999999999999 13.656999999999996 C 5.735999999999999 11.874999999999996 5.731999999999999 10.088999999999997 5.731999999999999 8.297999999999996 z" stroke-linecap="round" />
</g>
		<g transform="matrix(1 0 0 1 -11.48 -8.57)"  >
<path style="stroke: none; stroke-width: 1; stroke-dasharray: none; stroke-linecap: butt; stroke-dashoffset: 0; stroke-linejoin: miter; stroke-miterlimit: 4; fill: rgb(252,221,6); fill-rule: nonzero; opacity: 1;" vector-effect="non-scaling-stroke"  transform=" translate(-4.31, -12.2)" d="M 4.98 10.958 C 4.98 12.283 4.985 13.604 4.976000000000001 14.928 C 4.976000000000001 15.120000000000001 5.026000000000001 15.245000000000001 5.192000000000001 15.361 C 5.944000000000001 15.876000000000001 6.077000000000001 16.885 5.504000000000001 17.612000000000002 C 4.972000000000001 18.285000000000004 3.934000000000001 18.377000000000002 3.2980000000000014 17.808000000000003 C 2.6170000000000013 17.201000000000004 2.5750000000000015 16.163000000000004 3.211000000000001 15.528000000000004 C 3.257000000000001 15.481000000000003 3.3060000000000014 15.428000000000004 3.365000000000001 15.398000000000003 C 3.6050000000000013 15.290000000000003 3.647000000000001 15.103000000000003 3.647000000000001 14.858000000000004 C 3.639000000000001 12.254000000000005 3.643000000000001 9.645000000000003 3.643000000000001 7.041000000000004 C 3.643000000000001 6.912000000000004 3.6300000000000012 6.787000000000004 3.676000000000001 6.663000000000004 C 3.788000000000001 6.347000000000004 4.079000000000001 6.177000000000004 4.428000000000001 6.227000000000004 C 4.735000000000001 6.268000000000004 4.98 6.538000000000004 4.985000000000001 6.870000000000004 C 4.993000000000001 7.360000000000004 4.989000000000001 7.850000000000003 4.989000000000001 8.340000000000003 C 4.98 9.210000000000003 4.976000000000001 10.081000000000003 4.98 10.958000000000004 z" stroke-linecap="round" />
</g>
		<g transform="matrix(1 0 0 1 -8.7 9.47)"  >
<path style="stroke: none; stroke-width: 1; stroke-dasharray: none; stroke-linecap: butt; stroke-dashoffset: 0; stroke-linejoin: miter; stroke-miterlimit: 4; fill: rgb(206,19,23); fill-rule: nonzero; opacity: 1;" vector-effect="non-scaling-stroke"  transform=" translate(-18.3, -36.47)" d="M 8.146 32.334 L 28.458000000000002 32.334 L 28.458000000000002 40.604 L 8.146 40.604 z" stroke-linecap="round" />
</g>
</g>
</g>
</svg>