<?xml version="1.0" encoding="UTF-8" standalone="no" ?>
<!DOCTYPE svg PUBLIC "-//W3C//DTD SVG 1.1//EN" "http://www.w3.org/Graphics/SVG/1.1/DTD/svg11.dtd">
<svg xmlns="http://www.w3.org/2000/svg" xmlns:xlink="http://www.w3.org/1999/xlink" version="1.1" width="41" height="41" viewBox="0 0 41 41" xml:space="preserve">
<desc>Created with Fabric.js 4.2.0</desc>
<defs>
</defs>
<rect x="0" y="0" width="100%" height="100%" fill="transparent"></rect>
<g transform="matrix(1 0 0 1 20.5 20.5)" id="38b2ea42-2c09-4962-ac16-f9fcd6a8beb9"  >
<rect style="stroke: none; stroke-width: 1; stroke-dasharray: none; stroke-linecap: butt; stroke-dashoffset: 0; stroke-linejoin: miter; stroke-miterlimit: 4; fill: rgb(0,0,0); fill-opacity: 0; fill-rule: nonzero; opacity: 1;" vector-effect="non-scaling-stroke"  x="-20.5" y="-20.5" rx="0" ry="0" width="41" height="41" />
</g>
<g transform="matrix(0 0 0 0 0 0)" id="768da250-7b5b-4aec-9497-74273b48bbab"  >
</g>
<g transform="matrix(0.98 0 0 0.98 20.5 20.5)" id="439bb3da-393d-474f-860a-da1131f7e9a2"  >
<path style="stroke: rgb(0,0,0); stroke-width: 0; stroke-dasharray: none; stroke-linecap: butt; stroke-dashoffset: 0; stroke-linejoin: miter; stroke-miterlimit: 4; fill: rgb(150,141,178); fill-rule: nonzero; opacity: 1;" vector-effect="non-scaling-stroke"  transform=" translate(-21.38, -20.35)" d="M 21.383 0 C 32.673 0 41.825 9.113 41.825 20.354 C 41.825 31.595 32.673 40.708 21.383000000000003 40.708 C 10.093000000000004 40.708 0.9420000000000037 31.595 0.9420000000000037 20.354 C 0.9420000000000037 9.113 10.094 0 21.383 0 z M 26.576999999999998 12.346 C 23.878999999999998 12.346 21.689999999999998 14.526 21.689999999999998 17.212 C 21.689999999999998 17.593 21.733999999999998 17.964 21.817999999999998 18.32 C 17.756999999999998 18.118 14.155999999999999 16.18 11.745999999999999 13.236 C 11.325999999999999 13.955 11.083999999999998 14.791 11.083999999999998 15.683 C 11.083999999999998 17.37 11.947999999999999 18.86 13.257999999999997 19.733 C 12.457999999999997 19.707 11.703999999999997 19.488 11.044999999999998 19.123 L 11.044999999999998 19.185000000000002 C 11.044999999999998 21.542 12.729999999999999 23.508000000000003 14.964999999999998 23.955000000000002 C 14.554999999999998 24.067 14.121999999999998 24.125000000000004 13.676999999999998 24.125000000000004 C 13.361999999999998 24.125000000000004 13.056999999999999 24.095000000000002 12.757999999999997 24.039000000000005 C 13.379999999999997 25.972000000000005 15.183999999999997 27.379000000000005 17.321999999999996 27.418000000000006 C 15.649999999999995 28.723000000000006 13.542999999999996 29.500000000000007 11.253999999999996 29.500000000000007 C 10.859999999999996 29.500000000000007 10.469999999999995 29.47800000000001 10.088999999999995 29.432000000000006 C 12.248999999999995 30.813000000000006 14.818999999999996 31.618000000000006 17.577999999999996 31.618000000000006 C 26.564999999999998 31.618000000000006 31.479999999999997 24.205000000000005 31.479999999999997 17.775000000000006 C 31.479999999999997 17.565000000000005 31.475999999999996 17.355000000000004 31.465999999999998 17.146000000000004 C 32.421 16.460000000000004 33.25 15.604000000000005 33.905 14.628000000000004 C 33.029 15.015000000000004 32.086 15.276000000000003 31.098000000000003 15.393000000000004 C 32.107 14.791000000000004 32.881 13.839000000000004 33.247 12.702000000000005 C 32.303 13.260000000000005 31.257 13.664000000000005 30.144 13.882000000000005 C 29.253 12.937000000000005 27.982999999999997 12.346000000000005 26.576999999999998 12.346000000000005 z" stroke-linecap="round" />
</g>
</svg>