<?xml version="1.0" encoding="UTF-8" standalone="no" ?>
<!DOCTYPE svg PUBLIC "-//W3C//DTD SVG 1.1//EN" "http://www.w3.org/Graphics/SVG/1.1/DTD/svg11.dtd">
<svg xmlns="http://www.w3.org/2000/svg" xmlns:xlink="http://www.w3.org/1999/xlink" version="1.1" width="19" height="19" viewBox="0 0 19 19" xml:space="preserve">
<desc>Created with Fabric.js 4.2.0</desc>
<defs>
</defs>
<g transform="matrix(1 0 0 1 9.5 9.5)" id="0dd0bf78-3b39-4f3d-a1f6-9a60d10e9ba8"  >
<rect style="stroke: none; stroke-width: 1; stroke-dasharray: none; stroke-linecap: butt; stroke-dashoffset: 0; stroke-linejoin: miter; stroke-miterlimit: 4; fill: rgb(255,255,255); fill-rule: nonzero; opacity: 1;" vector-effect="non-scaling-stroke"  x="-9.5" y="-9.5" rx="0" ry="0" width="19" height="19" />
</g>
<g transform="matrix(0 0 0 0 0 0)" id="313671f3-0f19-4d2f-8428-034440495703"  >
</g>
<g transform="matrix(0.99 0 0 -0.99 9.5 9.5)"  >
<path style="stroke: rgb(0,0,0); stroke-width: 0; stroke-dasharray: none; stroke-linecap: butt; stroke-dashoffset: 0; stroke-linejoin: miter; stroke-miterlimit: 4; fill: rgb(204,204,204); fill-rule: nonzero; opacity: 1;" vector-effect="non-scaling-stroke"  transform=" translate(-7.92, -7.81)" d="M 7.828 0.04 C 8.078 0.027000000000000003 8.293000000000001 0.23600000000000002 8.334 0.473 L 8.341 0.5529999999999999 L 8.341 1.688 C 8.881 1.73 9.415999999999999 1.845 9.931 2.036 C 11.120999999999999 2.478 12.136999999999999 3.261 12.876 4.2940000000000005 C 13.508 5.180000000000001 13.878 6.24 13.971 7.324 L 15.284 7.324 C 15.571000000000002 7.324 15.783000000000001 7.56 15.797 7.837 C 15.81 8.113999999999999 15.55 8.35 15.284 8.35 L 13.97 8.35 C 13.956000000000001 8.508 13.936 8.665 13.911000000000001 8.822 C 13.538000000000002 11.302 11.541 13.376999999999999 9.089000000000002 13.872 C 8.839000000000002 13.924 8.587000000000002 13.959 8.336000000000002 13.979 L 8.340000000000002 15.059 C 8.340000000000002 15.347 8.104000000000001 15.559 7.827000000000002 15.572999999999999 C 7.550000000000002 15.585999999999999 7.314000000000002 15.325999999999999 7.314000000000002 15.059999999999999 C 7.311000000000002 14.535999999999998 7.311000000000002 14.017 7.307000000000002 13.492999999999999 L 7.309000000000002 13.976999999999999 C 6.606000000000002 13.916999999999998 5.913000000000002 13.738999999999999 5.259000000000002 13.444999999999999 C 4.134000000000002 12.942999999999998 3.1730000000000023 12.070999999999998 2.5360000000000023 11.020999999999999 C 2.0500000000000025 10.216 1.7530000000000023 9.290999999999999 1.6740000000000022 8.350999999999999 L 0.561 8.35 C 0.2730000000000001 8.35 0.061000000000000054 8.113999999999999 0.04800000000000004 7.837 C 0.034000000000000044 7.56 0.29400000000000004 7.324 0.561 7.324 L 1.677 7.324 C 1.79 6.056 2.277 4.869999999999999 3.085 3.887 C 4.135 2.607 5.695 1.8359999999999999 7.315 1.693 L 7.315 0.553 C 7.315 0.26500000000000007 7.551 0.05300000000000005 7.828 0.039000000000000035 z M 7.718 2.698 L 7.486 2.7039999999999997 L 7.192 2.731 C 7.168 2.731 7.144 2.734 7.12 2.738 C 7.171 2.731 7.178 2.728 7.14 2.734 C 7.103 2.738 7.061999999999999 2.7439999999999998 7.024 2.751 C 6.963 2.7609999999999997 6.901 2.771 6.84 2.7849999999999997 C 6.7059999999999995 2.8129999999999997 6.57 2.8469999999999995 6.436 2.885 C 6.296 2.9219999999999997 6.159 2.9669999999999996 6.022 3.018 C 5.957 3.042 5.896 3.069 5.831 3.093 L 5.848000000000001 3.086 C 5.8790000000000004 3.074 5.805000000000001 3.106 5.765000000000001 3.122 L 5.745000000000001 3.131 C 5.492000000000001 3.247 5.246000000000001 3.384 5.013000000000001 3.534 C 4.893000000000001 3.613 4.777000000000001 3.695 4.665000000000001 3.7809999999999997 L 4.682000000000001 3.767 C 4.702000000000001 3.756 4.629000000000001 3.815 4.592000000000001 3.843 L 4.576000000000001 3.856 L 4.4220000000000015 3.989 C 4.2200000000000015 4.167 4.035000000000002 4.362 3.8610000000000015 4.567 C 3.8340000000000014 4.601 3.8030000000000017 4.636 3.7750000000000017 4.67 L 3.7630000000000017 4.684 L 3.7600000000000016 4.688 L 3.7040000000000015 4.763 L 3.6390000000000016 4.854 C 3.5670000000000015 4.961 3.4950000000000014 5.067 3.4300000000000015 5.176 C 3.3550000000000013 5.299 3.2860000000000014 5.426 3.2210000000000014 5.5520000000000005 C 3.1910000000000016 5.614000000000001 3.1600000000000015 5.675000000000001 3.1320000000000014 5.737 C 3.1190000000000015 5.764 3.0470000000000015 5.939 3.0850000000000013 5.843 L 2.9870000000000014 6.099 C 2.9250000000000016 6.272 2.8710000000000013 6.449 2.8280000000000016 6.626 C 2.790000000000002 6.776000000000001 2.7600000000000016 6.9270000000000005 2.7360000000000015 7.081 L 2.7290000000000014 7.125 L 2.7290000000000014 7.127 L 2.7270000000000016 7.130999999999999 L 2.7240000000000015 7.161999999999999 L 2.7220000000000018 7.176999999999999 L 2.7020000000000017 7.3889999999999985 C 2.6780000000000017 7.682999999999998 2.6780000000000017 7.979999999999999 2.6980000000000017 8.274 C 2.705000000000002 8.354 2.7120000000000015 8.431999999999999 2.7220000000000018 8.51 L 2.7220000000000018 8.522 C 2.725000000000002 8.533 2.725000000000002 8.539 2.7260000000000018 8.545 L 2.7260000000000018 8.549 L 2.7260000000000018 8.548 L 2.7270000000000016 8.558 L 2.7270000000000016 8.561 L 2.7290000000000014 8.572 L 2.739000000000001 8.629999999999999 C 2.7630000000000012 8.76 2.7870000000000013 8.886999999999999 2.8180000000000014 9.017 C 2.8830000000000013 9.29 2.9680000000000013 9.559999999999999 3.0740000000000016 9.824 L 3.0700000000000016 9.812 L 3.0740000000000016 9.824 C 3.0810000000000017 9.841 3.0840000000000014 9.847999999999999 3.0840000000000014 9.844 L 3.0790000000000015 9.833 L 3.0810000000000013 9.837 L 3.095000000000001 9.868 C 3.112000000000001 9.902000000000001 3.125000000000001 9.937000000000001 3.143000000000001 9.971 C 3.167000000000001 10.025 3.1940000000000013 10.081 3.221000000000001 10.135 C 3.280000000000001 10.254999999999999 3.3480000000000008 10.375 3.416000000000001 10.491 C 3.488000000000001 10.613999999999999 3.5660000000000007 10.733 3.649000000000001 10.85 C 3.6870000000000007 10.904 3.728000000000001 10.959999999999999 3.769000000000001 11.014 L 3.753000000000001 10.992999999999999 L 3.759000000000001 11.001999999999999 L 3.814000000000001 11.069999999999999 L 3.827000000000001 11.085999999999999 C 4.008000000000001 11.304999999999998 4.203000000000001 11.509999999999998 4.415000000000001 11.697999999999999 C 4.473000000000001 11.748999999999999 4.528000000000001 11.796999999999999 4.586000000000001 11.844999999999999 L 4.649000000000001 11.895 L 4.6690000000000005 11.911999999999999 L 4.819000000000001 12.021999999999998 L 4.986000000000001 12.136 C 5.212000000000001 12.286 5.448 12.418999999999999 5.694000000000001 12.532 C 5.735000000000001 12.549 5.776000000000001 12.57 5.817000000000001 12.587 L 5.830000000000001 12.593 L 5.841000000000001 12.597 L 6.033000000000001 12.668999999999999 C 6.163000000000001 12.716999999999999 6.293000000000001 12.758 6.426000000000001 12.796 C 6.559000000000001 12.833 6.693000000000001 12.866999999999999 6.829000000000001 12.895 C 6.898000000000001 12.908999999999999 6.966000000000001 12.921999999999999 7.035000000000001 12.932 C 7.072000000000001 12.939 7.113000000000001 12.942 7.151000000000001 12.950000000000001 L 7.1450000000000005 12.948 C 7.344 12.97 7.535 12.983 7.7250000000000005 12.986 L 7.7780000000000005 12.986 L 7.821000000000001 12.98 C 7.8500000000000005 12.979000000000001 7.878000000000001 12.98 7.906000000000001 12.985000000000001 L 8.013 12.984000000000002 C 8.173 12.980000000000002 8.331 12.967000000000002 8.488 12.950000000000001 L 8.501999999999999 12.947000000000001 L 8.511999999999999 12.946000000000002 L 8.491999999999999 12.950000000000001 L 8.537999999999998 12.943000000000001 L 8.583999999999998 12.936000000000002 C 8.658999999999997 12.926000000000002 8.737999999999998 12.912000000000003 8.812999999999997 12.895000000000001 C 9.082999999999997 12.840000000000002 9.349999999999998 12.768 9.609999999999998 12.673000000000002 L 9.809999999999997 12.593000000000002 L 9.909999999999997 12.551000000000002 L 9.927999999999997 12.543000000000003 C 10.050999999999997 12.484000000000004 10.170999999999998 12.423000000000004 10.289999999999997 12.358000000000002 C 10.532999999999998 12.225000000000001 10.769999999999998 12.071000000000002 10.987999999999998 11.903000000000002 C 10.905999999999997 11.965000000000002 11.069999999999999 11.835000000000003 11.093999999999998 11.814000000000002 C 11.141999999999998 11.777000000000001 11.186999999999998 11.739000000000003 11.230999999999998 11.698000000000002 C 11.330999999999998 11.606000000000002 11.428999999999998 11.513000000000002 11.520999999999997 11.418000000000003 C 11.620999999999997 11.315000000000003 11.712999999999997 11.208000000000002 11.805999999999997 11.099000000000002 L 11.882999999999997 11.005000000000003 L 11.892999999999997 10.995000000000003 L 11.941999999999997 10.928000000000003 L 11.999999999999996 10.846000000000002 C 12.160999999999996 10.617000000000003 12.304999999999996 10.378000000000002 12.430999999999996 10.131000000000002 C 12.465999999999996 10.063000000000002 12.499999999999996 9.995000000000003 12.530999999999995 9.926000000000002 L 12.572999999999995 9.826000000000002 L 12.573999999999995 9.824000000000002 L 12.573999999999995 9.826000000000002 L 12.578999999999995 9.815000000000003 C 12.579999999999995 9.810000000000002 12.580999999999996 9.810000000000002 12.578999999999995 9.812000000000003 L 12.641999999999996 9.649000000000003 L 12.707999999999997 9.454000000000002 C 12.797999999999996 9.184000000000003 12.861999999999997 8.904000000000002 12.909999999999997 8.624000000000002 C 12.916999999999996 8.586000000000002 12.919999999999996 8.544000000000002 12.926999999999996 8.507000000000001 L 12.922999999999996 8.543000000000001 L 12.923999999999996 8.528 L 12.924999999999995 8.522 L 12.925999999999995 8.514000000000001 L 12.926999999999994 8.510000000000002 L 12.927999999999994 8.498000000000001 L 12.930999999999994 8.48 L 12.950999999999993 8.268 C 12.960999999999993 8.124 12.967999999999993 7.98 12.967999999999993 7.837000000000001 C 12.967999999999993 7.9510000000000005 13.011999999999993 8.064 13.082999999999993 8.155000000000001 C 13.013999999999992 8.067000000000002 12.972999999999994 7.955000000000001 12.967999999999993 7.8370000000000015 L 12.967999999999993 7.833000000000002 L 12.963999999999993 7.623000000000002 L 12.963999999999993 7.413000000000002 L 12.940999999999994 7.177000000000002 L 12.937999999999994 7.162000000000003 L 12.935999999999993 7.145000000000002 L 12.935999999999993 7.137000000000002 L 12.933999999999992 7.131000000000002 L 12.933999999999992 7.1270000000000024 L 12.926999999999992 7.081000000000002 C 12.882999999999992 6.801000000000002 12.816999999999993 6.523000000000002 12.728999999999992 6.250000000000002 C 12.683999999999992 6.113000000000001 12.636999999999992 5.976000000000002 12.581999999999992 5.843000000000002 L 12.591999999999992 5.8690000000000015 C 12.59999999999999 5.892000000000001 12.545999999999992 5.760000000000002 12.533999999999992 5.737000000000002 C 12.506999999999993 5.675000000000002 12.475999999999992 5.614000000000002 12.444999999999991 5.552000000000002 C 12.321999999999992 5.312000000000002 12.181999999999992 5.080000000000002 12.027999999999992 4.858000000000002 L 11.893999999999991 4.677000000000002 L 11.916999999999991 4.7070000000000025 L 11.908999999999992 4.697000000000003 L 11.888999999999992 4.670000000000003 L 11.876999999999992 4.656000000000002 L 11.805999999999992 4.571000000000002 C 11.725999999999992 4.471000000000003 11.640999999999993 4.379000000000002 11.551999999999992 4.287000000000003 C 11.456999999999992 4.184000000000003 11.353999999999992 4.088000000000003 11.247999999999992 3.9930000000000025 C 11.196999999999992 3.9450000000000025 11.144999999999992 3.9030000000000027 11.093999999999992 3.8590000000000027 C 11.081999999999992 3.8470000000000026 10.997999999999992 3.781000000000003 10.981999999999992 3.7680000000000025 L 10.785999999999992 3.6250000000000027 C 10.637999999999993 3.5220000000000025 10.485999999999992 3.426000000000003 10.327999999999992 3.3390000000000026 C 10.194999999999993 3.2640000000000025 10.060999999999993 3.196000000000003 9.924999999999992 3.1340000000000026 C 9.896999999999991 3.1210000000000027 9.746999999999991 3.0590000000000024 9.838999999999992 3.0970000000000026 L 9.742999999999991 3.0570000000000026 L 9.64799999999999 3.0210000000000026 C 9.380999999999991 2.9220000000000024 9.10399999999999 2.8470000000000026 8.826999999999991 2.7890000000000024 L 8.59699999999999 2.7480000000000024 L 8.51999999999999 2.7360000000000024 L 8.512999999999991 2.7350000000000025 L 8.496999999999991 2.7330000000000028 L 8.476999999999991 2.731000000000003 C 8.344999999999992 2.717000000000003 8.206999999999992 2.707000000000003 8.073999999999991 2.700000000000003 C 8.017999999999992 2.6970000000000027 7.961999999999991 2.696000000000003 7.905999999999991 2.695000000000003 L 7.8279999999999905 2.707000000000003 C 7.78999999999999 2.7090000000000027 7.753999999999991 2.705000000000003 7.71799999999999 2.697000000000003 z M 7.821 4.313 C 9.767 4.313 11.344999999999999 5.891 11.344999999999999 7.837 C 11.344999999999999 9.783 9.767 11.36 7.82 11.36 C 5.873000000000001 11.36 4.298 9.783 4.298 7.837 C 4.298 5.891 5.875 4.313 7.821 4.313 z" stroke-linecap="round" />
</g>
</svg>