<?xml version="1.0" encoding="UTF-8" standalone="no" ?>
<!DOCTYPE svg PUBLIC "-//W3C//DTD SVG 1.1//EN" "http://www.w3.org/Graphics/SVG/1.1/DTD/svg11.dtd">
<svg xmlns="http://www.w3.org/2000/svg" xmlns:xlink="http://www.w3.org/1999/xlink" version="1.1" width="54" height="54" viewBox="0 0 54 54" xml:space="preserve">
<desc>Created with Fabric.js 4.2.0</desc>
<defs>
</defs>
<rect x="0" y="0" width="100%" height="100%" fill="transparent"></rect>
<g transform="matrix(1 0 0 1 27 27)" id="bec303d0-159f-4cbf-931c-a694f99ee0eb"  >
<rect style="stroke: none; stroke-width: 1; stroke-dasharray: none; stroke-linecap: butt; stroke-dashoffset: 0; stroke-linejoin: miter; stroke-miterlimit: 4; fill: rgb(255,255,255); fill-rule: nonzero; opacity: 1;" vector-effect="non-scaling-stroke"  x="-27" y="-27" rx="0" ry="0" width="54" height="54" />
</g>
<g transform="matrix(Infinity NaN NaN Infinity 0 0)" id="89a66428-1841-48b6-a746-376b416e46f2"  >
</g>
<g transform="matrix(0.95 0 0 0.98 26.5 27)"  >
<g style="" vector-effect="non-scaling-stroke"   >
		<g transform="matrix(1 0 0 1 0 0)"  >
<path style="stroke: none; stroke-width: 1; stroke-dasharray: none; stroke-linecap: butt; stroke-dashoffset: 0; stroke-linejoin: miter; stroke-miterlimit: 4; fill: rgb(72,53,140); fill-rule: nonzero; opacity: 1;" vector-effect="non-scaling-stroke"  transform=" translate(-27, -27)" d="M 42.481 53.788 L 11.52 53.788 C 5.27 53.788 0.212 48.725 0.212 42.481 L 0.212 11.52 C 0.212 5.275 5.275 0.212 11.519 0.212 L 42.48 0.212 C 48.727999999999994 0.212 53.787 5.2749999999999995 53.787 11.519 L 53.787 42.48 C 53.787 48.724 48.724 53.787 42.48 53.787 z" stroke-linecap="round" />
</g>
		<g transform="matrix(1 0 0 1 7.85 1.36)"  >
<path style="stroke: none; stroke-width: 1; stroke-dasharray: none; stroke-linecap: butt; stroke-dashoffset: 0; stroke-linejoin: miter; stroke-miterlimit: 4; fill: rgb(247,211,11); fill-rule: nonzero; opacity: 1;" vector-effect="non-scaling-stroke"  transform=" translate(-14.91, -15.07)" d="M 29.334 18.003 L 27.594 4.253 C 27.486 3.439 27.071 2.717 26.414 2.214 C 25.762 1.7109999999999999 24.956000000000003 1.495 24.142000000000003 1.599 L 0.798 4.661 C 0.652 4.680999999999999 0.5150000000000001 4.710999999999999 0.37800000000000006 4.747999999999999 C 1.0010000000000001 4.967999999999999 1.512 5.345999999999999 1.9400000000000002 5.985999999999999 C 2.06 6.167999999999999 2.123 6.375999999999999 2.1300000000000003 6.591999999999999 L 24.412 3.671999999999999 C 24.454 3.667999999999999 24.499 3.663999999999999 24.541 3.663999999999999 C 24.757 3.663999999999999 24.965 3.7339999999999987 25.143 3.8709999999999987 C 25.355 4.032999999999999 25.488 4.265999999999998 25.521 4.518999999999998 L 27.266000000000002 18.288999999999998 L 27.274 18.339 C 27.544 19.854999999999997 27.191000000000003 21.375999999999998 26.281000000000002 22.618 C 25.371000000000002 23.86 24.03 24.657999999999998 22.501 24.857 L 10.734000000000002 26.406 C 6.933000000000002 26.904 3.394000000000002 24.641 2.1480000000000015 21.171999999999997 C 2.1390000000000016 21.857999999999997 2.1310000000000016 22.541999999999998 2.1310000000000016 23.231999999999996 C 2.1310000000000016 23.784999999999997 1.8690000000000015 24.166999999999994 1.5080000000000016 24.382999999999996 C 3.3680000000000017 26.945999999999994 6.388000000000002 28.565999999999995 9.687000000000001 28.565999999999995 C 10.123000000000001 28.565999999999995 10.563 28.535999999999994 11.007000000000001 28.478999999999996 L 22.776000000000003 26.928999999999995 C 24.873000000000005 26.654999999999994 26.718000000000004 25.562999999999995 27.968000000000004 23.855999999999995 C 29.210000000000004 22.151999999999994 29.696000000000005 20.075999999999993 29.334000000000003 18.002999999999993 z" stroke-linecap="round" />
</g>
		<g transform="matrix(1 0 0 1 11.21 -2.84)"  >
<path style="stroke: none; stroke-width: 1; stroke-dasharray: none; stroke-linecap: butt; stroke-dashoffset: 0; stroke-linejoin: miter; stroke-miterlimit: 4; fill: rgb(255,255,255); fill-rule: nonzero; opacity: 1;" vector-effect="non-scaling-stroke"  transform=" translate(-18.27, -10.87)" d="M 12.74 11.12 C 12.034 11.12 11.323 10.979 10.646 10.696 C 9.305000000000001 10.136 8.25 9.08 7.680000000000001 7.725999999999999 C 7.111000000000001 6.371999999999999 7.095000000000001 4.8809999999999985 7.630000000000001 3.525999999999999 C 8.170000000000002 2.167999999999999 9.205 1.108999999999999 10.542000000000002 0.5439999999999987 C 11.880000000000003 -0.02100000000000124 13.359000000000002 -0.016000000000001346 14.709000000000001 0.5479999999999987 C 16.05 1.1089999999999987 17.106 2.163999999999999 17.675 3.517999999999999 C 18.85 6.317999999999999 17.567 9.537999999999998 14.808 10.695999999999998 C 14.148 10.982999999999999 13.442 11.119999999999997 12.74 11.119999999999997 z M 12.620000000000001 1.9019999999999992 C 12.15 1.9019999999999992 11.676000000000002 1.9979999999999993 11.232000000000001 2.184999999999999 C 10.335 2.5629999999999993 9.642000000000001 3.2729999999999992 9.280000000000001 4.186999999999999 C 8.914000000000001 5.1049999999999995 8.927000000000001 6.119 9.313 7.0409999999999995 C 10.110000000000001 8.939 12.27 9.849 14.123000000000001 9.068 C 15.98 8.286999999999999 16.84 6.109999999999999 16.038 4.212 C 15.652000000000001 3.2899999999999996 14.933 2.572 14.023 2.1889999999999996 C 13.571 1.9979999999999996 13.093 1.9019999999999997 12.619 1.9019999999999997 z M 26.045 14.646 C 25.338 14.646 24.628 14.506 23.951 14.223 C 22.609 13.662 21.554000000000002 12.607000000000001 20.985 11.253 C 19.81 8.453 21.093 5.2330000000000005 23.851 4.075 C 25.189 3.515 26.668 3.515 28.018 4.079 C 29.359 4.638999999999999 30.414 5.695 30.984 7.0489999999999995 C 31.553 8.402999999999999 31.569000000000003 9.894 31.034000000000002 11.248999999999999 C 30.494000000000003 12.607 29.459000000000003 13.665999999999999 28.122000000000003 14.230999999999998 C 27.452 14.504999999999999 26.751000000000005 14.645999999999997 26.045 14.645999999999997 z M 24.537000000000003 5.707000000000001 C 22.680000000000003 6.488 21.820000000000004 8.665000000000001 22.622000000000003 10.563 C 23.008000000000003 11.485000000000001 23.727000000000004 12.204 24.636000000000003 12.586 C 25.542 12.964 26.535000000000004 12.968 27.432000000000002 12.59 C 28.329 12.212 29.022000000000002 11.501999999999999 29.384 10.588000000000001 C 29.75 9.670000000000002 29.737000000000002 8.657 29.351 7.734000000000001 C 28.554 5.836000000000001 26.394 4.926000000000001 24.537 5.707000000000001 z M 14.364 21.62 C 12.678 21.62 11.008000000000001 21.164 9.512 20.28 C 7.323 18.979000000000003 5.774000000000001 16.91 5.147 14.46 C 4.997 13.870000000000001 5.354 13.267000000000001 5.944 13.118 C 6.534 12.968 7.136 13.326 7.286 13.915000000000001 C 7.763999999999999 15.797 8.956 17.384 10.638 18.381 C 12.32 19.381 14.285 19.668 16.167 19.187 C 16.757 19.037000000000003 17.359 19.394000000000002 17.508000000000003 19.984 C 17.658 20.574 17.301000000000002 21.176000000000002 16.711000000000002 21.326 C 15.938000000000002 21.526 15.149000000000003 21.621000000000002 14.364000000000003 21.621000000000002 z" stroke-linecap="round" />
</g>
		<g transform="matrix(1 0 0 1 -12.77 -0.55)"  >
<path style="stroke: none; stroke-width: 1; stroke-dasharray: none; stroke-linecap: butt; stroke-dashoffset: 0; stroke-linejoin: miter; stroke-miterlimit: 4; fill: rgb(255,255,255); fill-rule: nonzero; opacity: 1;" vector-effect="non-scaling-stroke"  transform=" translate(-14.23, -26.45)" d="M 22.7 19.423 L 18.36 15.078 C 18.223 14.940999999999999 18.04 14.866999999999999 17.849999999999998 14.866999999999999 L 6.26 14.866999999999999 C 5.861 14.866999999999999 5.537 15.190999999999999 5.537 15.588999999999999 L 5.537 37.314 C 5.537 37.713 5.861 38.037 6.26 38.037 L 22.189999999999998 38.037 C 22.589 38.037 22.912999999999997 37.713 22.912999999999997 37.314 L 22.912999999999997 19.938 C 22.916999999999998 19.743 22.837999999999997 19.56 22.700999999999997 19.423 z M 18.572 17.337999999999997 L 20.445 19.211999999999996 L 18.572 19.211999999999996 L 18.572 17.337999999999997 z M 21.467 36.590999999999994 L 6.987 36.590999999999994 L 6.987 16.316 L 17.122 16.316 L 17.122 19.938 C 17.122 20.337999999999997 17.446 20.660999999999998 17.845 20.660999999999998 L 21.467 20.660999999999998 L 21.467 36.590999999999994 z" stroke-linecap="round" />
</g>
		<g transform="matrix(1 0 0 1 -13.5 -0.91)"  >
<path style="stroke: none; stroke-width: 1; stroke-dasharray: none; stroke-linecap: butt; stroke-dashoffset: 0; stroke-linejoin: miter; stroke-miterlimit: 4; fill: rgb(255,255,255); fill-rule: nonzero; opacity: 1;" vector-effect="non-scaling-stroke"  transform=" translate(-13.5, -26.09)" d="M 9.882 25.006 L 11.331999999999999 25.006 L 11.331999999999999 26.456 L 9.882 26.456 z M 12.777 25.006 L 18.572 25.006 L 18.572 26.456 L 12.777 26.456 z M 9.882 28.624 L 11.331999999999999 28.624 L 11.331999999999999 30.073999999999998 L 9.882 30.073999999999998 z M 12.777 28.624 L 18.572 28.624 L 18.572 30.073999999999998 L 12.777 30.073999999999998 z M 9.882 32.246 L 11.331999999999999 32.246 L 11.331999999999999 33.696000000000005 L 9.882 33.696000000000005 z M 12.777 32.246 L 18.572 32.246 L 18.572 33.696000000000005 L 12.777 33.696000000000005 z M 11.328 19.938 L 11.328 18.489 L 9.882 18.489 L 9.882 19.938 L 8.432 19.938 L 8.432 21.384 L 9.882 21.384 L 9.882 22.834 L 11.328 22.834 L 11.328 21.384 L 12.777 21.384 L 12.777 19.938 z" stroke-linecap="round" />
</g>
</g>
</g>
</svg>