<?xml version="1.0" encoding="UTF-8" standalone="no" ?>
<!DOCTYPE svg PUBLIC "-//W3C//DTD SVG 1.1//EN" "http://www.w3.org/Graphics/SVG/1.1/DTD/svg11.dtd">
<svg xmlns="http://www.w3.org/2000/svg" xmlns:xlink="http://www.w3.org/1999/xlink" version="1.1" width="54" height="54" viewBox="0 0 54 54" xml:space="preserve">
<desc>Created with Fabric.js 4.2.0</desc>
<defs>
</defs>
<rect x="0" y="0" width="100%" height="100%" fill="transparent"></rect>
<g transform="matrix(1 0 0 1 27 27)" id="52a365c2-3a64-477e-b740-07680a5ed8cc"  >
<rect style="stroke: none; stroke-width: 1; stroke-dasharray: none; stroke-linecap: butt; stroke-dashoffset: 0; stroke-linejoin: miter; stroke-miterlimit: 4; fill: rgb(255,255,255); fill-opacity: 0; fill-rule: nonzero; opacity: 1;" vector-effect="non-scaling-stroke"  x="-27" y="-27" rx="0" ry="0" width="54" height="54" />
</g>
<g transform="matrix(Infinity NaN NaN Infinity 0 0)" id="b21419d8-8229-443e-91ce-a907b6d00e17"  >
</g>
<g transform="matrix(0.99 0 0 0.99 27 27)"  >
<g style="" vector-effect="non-scaling-stroke"   >
		<g transform="matrix(1 0 0 1 0 0)"  >
<path style="stroke: none; stroke-width: 1; stroke-dasharray: none; stroke-linecap: butt; stroke-dashoffset: 0; stroke-linejoin: miter; stroke-miterlimit: 4; fill: rgb(72,53,140); fill-rule: nonzero; opacity: 1;" vector-effect="non-scaling-stroke"  transform=" translate(-27, -27)" d="M 42.481 53.788 L 11.52 53.788 C 5.27 53.788 0.212 48.725 0.212 42.481 L 0.212 11.52 C 0.212 5.275 5.275 0.212 11.519 0.212 L 42.48 0.212 C 48.727999999999994 0.212 53.787 5.2749999999999995 53.787 11.519 L 53.787 42.48 C 53.787 48.724 48.724 53.787 42.48 53.787 z" stroke-linecap="round" />
</g>
		<g transform="matrix(1 0 0 1 -9.25 8.27)"  >
<path style="stroke: rgb(255,255,255); stroke-width: 0.609; stroke-dasharray: none; stroke-linecap: butt; stroke-dashoffset: 0; stroke-linejoin: miter; stroke-miterlimit: 4; fill: rgb(255,255,255); fill-rule: nonzero; opacity: 1;" vector-effect="non-scaling-stroke"  transform=" translate(-17.75, -35.27)" d="M 17.754 23.357 C 11.186 23.357 5.84 28.7 5.84 35.27 C 5.84 41.842000000000006 11.181999999999999 47.184000000000005 17.753999999999998 47.184000000000005 C 24.323999999999998 47.184000000000005 29.666999999999998 41.842000000000006 29.666999999999998 35.27 C 29.666999999999998 28.699000000000005 24.320999999999998 23.357000000000003 17.753999999999998 23.357000000000003 z M 17.754 45.726 C 15.078000000000001 45.726 12.632000000000001 44.711999999999996 10.779000000000002 43.05 L 13.180000000000001 40.65 C 12.673000000000002 40.359 12.237000000000002 39.955999999999996 11.913000000000002 39.47 L 9.591000000000001 41.792 C 8.158000000000001 40.002 7.298000000000001 37.734 7.298000000000001 35.266000000000005 C 7.298000000000001 29.501000000000005 11.988000000000001 24.811000000000007 17.754 24.811000000000007 C 20.221 24.811000000000007 22.489 25.671000000000006 24.279000000000003 27.104000000000006 L 21.741000000000003 29.642000000000007 C 22.115000000000002 30.149000000000008 22.364000000000004 30.747000000000007 22.439000000000004 31.391000000000005 L 25.538000000000004 28.291000000000004 C 27.199000000000005 30.144000000000005 28.213000000000005 32.587 28.213000000000005 35.266000000000005 C 28.209000000000003 41.036 23.519000000000005 45.726000000000006 17.753000000000004 45.726000000000006 z" stroke-linecap="round" />
</g>
		<g transform="matrix(1 0 0 1 3.6 -4.92)"  >
<path style="stroke: none; stroke-width: 1; stroke-dasharray: none; stroke-linecap: butt; stroke-dashoffset: 0; stroke-linejoin: miter; stroke-miterlimit: 4; fill: rgb(247,211,11); fill-rule: nonzero; opacity: 1;" vector-effect="non-scaling-stroke"  transform=" translate(-30.6, -22.08)" d="M 47.62 22.398 L 45.16 9.786 C 44.812 8.004 43.08 6.837 41.297999999999995 7.186 L 16.037999999999993 12.116 C 14.255999999999993 12.466 13.087999999999994 14.198 13.437999999999994 15.984 L 14.953999999999994 23.576999999999998 C 15.463999999999993 23.299 16.041999999999994 23.141 16.652999999999995 23.141 C 16.785999999999994 23.141 16.922999999999995 23.148999999999997 17.051999999999996 23.165999999999997 L 15.534999999999997 15.568999999999996 C 15.414999999999997 14.945999999999996 15.821999999999997 14.334999999999996 16.448999999999998 14.213999999999995 L 41.709 9.283999999999995 C 41.784000000000006 9.266999999999996 41.859 9.263999999999996 41.929 9.263999999999996 C 42.469 9.263999999999996 42.955000000000005 9.644999999999996 43.063 10.197999999999995 L 45.522000000000006 22.807999999999993 C 46.45700000000001 27.589999999999993 43.325 32.24199999999999 38.544000000000004 33.172999999999995 L 29.584000000000003 34.916999999999994 C 29.791000000000004 35.37 29.908000000000005 35.867999999999995 29.908000000000005 36.391999999999996 C 29.908000000000005 36.61599999999999 29.883000000000006 36.831999999999994 29.841000000000005 37.044 L 38.95100000000001 35.269999999999996 C 44.891000000000005 34.111 48.77900000000001 28.337999999999994 47.620000000000005 22.397999999999996 z" stroke-linecap="round" />
</g>
		<g transform="matrix(1 0 0 1 4.05 -9.28)"  >
<path style="stroke: rgb(255,255,255); stroke-width: 2; stroke-dasharray: none; stroke-linecap: round; stroke-dashoffset: 0; stroke-linejoin: round; stroke-miterlimit: 4; fill: none; fill-rule: evenodd; opacity: 1;" vector-effect="non-scaling-stroke"  transform=" translate(-31.05, -17.72)" d="M 37.277 12.611 L 37.277 12.611 C 35.125 12.449 33.243 14.098 33.081 16.287 L 33.081 16.287 C 32.915000000000006 18.48 34.527 20.391 36.683 20.549 L 36.683 20.549 C 38.834 20.711 40.716 19.061999999999998 40.878 16.872999999999998 L 40.878 16.872999999999998 C 41.04 14.679999999999998 39.428 12.772999999999998 37.277 12.610999999999997 z M 25.41 14.892 L 25.41 14.892 C 23.257 14.729999999999999 21.376 16.378999999999998 21.214 18.567999999999998 L 21.214 18.567999999999998 C 21.048 20.761 22.659 22.671999999999997 24.814999999999998 22.83 L 24.814999999999998 22.83 C 26.967 22.991999999999997 28.848 21.342 29.009999999999998 19.153 L 29.009999999999998 19.153 C 29.171999999999997 16.964 27.56 15.052999999999999 25.409999999999997 14.892 z" stroke-linecap="round" />
</g>
		<g transform="matrix(1 0 0 1 -7.87 8.31)"  >
<path style="stroke: rgb(252,221,6); stroke-width: 0.6; stroke-dasharray: none; stroke-linecap: butt; stroke-dashoffset: 0; stroke-linejoin: miter; stroke-miterlimit: 4; fill: rgb(252,221,6); fill-rule: nonzero; opacity: 1;" vector-effect="non-scaling-stroke"  transform=" translate(-19.13, -35.31)" d="M 13.724 30.26 C 13.961 29.505000000000003 14.074 28.703000000000003 14.455 28.072000000000003 C 14.858 27.407000000000004 15.594 27.412000000000003 16.59 27.827 C 17.886 26.577 18.626 26.572000000000003 19.722 27.822000000000003 C 21.002000000000002 27.378000000000004 21.732 27.544000000000004 22.19 28.450000000000003 C 22.34 28.745000000000005 22.398 29.114000000000004 22.402 29.450000000000003 C 22.422 31.370000000000005 22.41 33.285000000000004 22.41 35.366 C 22.904 34.88 23.295 34.494 23.694 34.107 C 24.541 33.289 25.634 33.235 26.372999999999998 33.974 C 27.112999999999996 34.709999999999994 27.066 35.818999999999996 26.226999999999997 36.648999999999994 C 24.291999999999998 38.57699999999999 22.401999999999997 40.553999999999995 20.382999999999996 42.385999999999996 C 18.754999999999995 43.85999999999999 16.760999999999996 44.105999999999995 14.749999999999996 43.245999999999995 C 12.697999999999997 42.36899999999999 11.509999999999996 40.733 11.418999999999997 38.477 C 11.331999999999997 36.297 11.381999999999996 34.107 11.388999999999998 31.921999999999997 C 11.393999999999998 30.625999999999998 12.307999999999998 29.915999999999997 13.553999999999998 30.206999999999997 C 13.653999999999998 30.231999999999996 13.748999999999999 30.269 13.723999999999998 30.260999999999996 z M 21.662 35.898 L 21.662 33.393 C 21.662 31.993000000000002 21.695999999999998 30.593 21.625 29.197000000000003 C 21.608 28.898000000000003 21.268 28.475 20.981 28.375000000000004 C 20.728 28.284000000000002 20.271 28.479000000000003 20.038 28.695000000000004 C 19.855 28.865000000000006 19.826 29.255000000000003 19.818 29.546000000000003 C 19.798000000000002 30.813000000000002 19.826 32.084 19.793000000000003 33.351000000000006 C 19.789 33.57600000000001 19.577 33.79600000000001 19.461000000000002 34.02 C 19.344 33.800000000000004 19.133000000000003 33.580000000000005 19.128000000000004 33.355000000000004 C 19.099000000000004 31.848000000000003 19.120000000000005 30.340000000000003 19.108000000000004 28.828000000000003 C 19.099000000000004 28.059000000000005 18.758000000000003 27.656000000000002 18.168000000000003 27.652000000000005 C 17.571 27.652000000000005 17.263 28.038000000000004 17.259000000000004 28.828000000000003 C 17.255000000000003 30.336000000000002 17.272000000000006 31.848000000000003 17.239000000000004 33.355000000000004 C 17.234000000000005 33.575 17.006000000000004 33.792 16.881000000000004 34.012 C 16.757000000000005 33.796 16.532000000000004 33.584 16.528000000000002 33.364 C 16.495 32.050999999999995 16.516000000000002 30.737999999999996 16.508000000000003 29.429999999999996 C 16.503000000000004 28.702999999999996 16.183000000000003 28.307999999999996 15.610000000000003 28.291999999999994 C 15.012000000000002 28.274999999999995 14.663000000000004 28.690999999999995 14.659000000000002 29.441999999999993 C 14.651000000000003 30.796999999999993 14.659000000000002 32.154999999999994 14.655000000000003 33.50899999999999 C 14.655000000000003 33.96999999999999 14.680000000000003 34.43099999999999 14.638000000000003 34.88399999999999 C 14.626000000000003 35.03399999999999 14.430000000000003 35.16199999999999 14.322000000000003 35.303999999999995 C 14.198000000000002 35.178999999999995 14.023000000000003 35.074999999999996 13.957000000000003 34.925999999999995 C 13.890000000000002 34.775999999999996 13.927000000000003 34.580999999999996 13.924000000000003 34.40599999999999 C 13.920000000000003 33.529999999999994 13.924000000000003 32.657999999999994 13.911000000000003 31.78099999999999 C 13.903000000000004 31.20799999999999 13.566000000000003 30.86699999999999 13.014000000000003 30.85899999999999 C 12.486000000000002 30.84599999999999 12.174000000000003 31.182999999999993 12.104000000000003 31.70999999999999 C 12.079000000000002 31.88499999999999 12.075000000000003 32.05999999999999 12.075000000000003 32.23399999999999 C 12.075000000000003 34.09099999999999 12.063000000000002 35.951999999999984 12.084000000000003 37.807999999999986 C 12.088000000000003 38.32799999999999 12.125000000000004 38.862999999999985 12.262000000000004 39.36199999999999 C 13.276000000000003 43.033999999999985 17.500000000000004 44.18399999999999 20.304000000000002 41.52199999999999 C 22.144000000000002 39.776999999999994 23.905 37.94999999999999 25.696 36.15099999999999 C 26.252000000000002 35.59099999999999 26.290000000000003 34.91699999999999 25.824 34.47299999999999 C 25.376 34.044999999999995 24.744 34.09499999999999 24.196 34.62599999999999 C 23.631 35.17499999999999 23.096 35.75599999999999 22.514000000000003 36.28399999999999 C 22.323000000000004 36.45399999999999 22.032000000000004 36.590999999999994 21.779000000000003 36.60399999999999 C 19.087000000000003 36.71999999999999 17.687000000000005 37.94999999999999 17.255000000000003 40.57099999999999 C 17.222 40.76099999999999 16.965000000000003 40.91499999999999 16.815 41.08599999999999 C 16.719 40.88999999999999 16.532 40.69099999999999 16.549 40.50399999999999 C 16.653 39.11699999999999 17.218 37.94499999999999 18.298 37.03999999999999 C 19.247999999999998 36.245999999999995 20.362 35.92999999999999 21.662 35.89799999999999 z" stroke-linecap="round" />
</g>
		<g transform="matrix(1 0 0 1 7.18 0.27)"  >
<path style="stroke: none; stroke-width: 1; stroke-dasharray: none; stroke-linecap: butt; stroke-dashoffset: 0; stroke-linejoin: miter; stroke-miterlimit: 4; fill: rgb(255,255,255); fill-rule: nonzero; opacity: 1;" vector-effect="non-scaling-stroke"  transform=" translate(-34.18, -27.27)" d="M 36.122 25.264 C 34.792 26.398 33.418 27.503 31.594 26.871 C 30.054000000000002 26.334999999999997 29.368000000000002 28.77 30.900000000000002 29.301 C 33.625 30.247999999999998 35.88 28.782 37.891000000000005 27.066 C 39.133 26.011 37.35600000000001 24.209 36.121 25.264 z" stroke-linecap="round" />
</g>
</g>
</g>
</svg>